<svg xmlns="http://www.w3.org/2000/svg" xmlns:xlink="http://www.w3.org/1999/xlink" version="1.1" x="0px" y="0px" viewBox="0 0 100 125" enable-background="new 0 0 100 100" xml:space="preserve"><g><g><g><path fill="#000000" d="M52.501,67.708c-0.109,0-0.222-0.003-0.336-0.01c-0.199-0.011-0.372-0.14-0.441-0.327l-1.666-4.548     c-0.028-0.055-0.116-0.229-0.051-0.445c0.438-1.358,0.054-2.563-0.393-3.959l-0.148-0.467c-0.274-0.88-0.532-1.057-1.123-1.112     c-0.31-0.031-0.634,0.041-0.99,0.116l-0.345,0.07c-0.383,0.07-0.721,0.104-1.033,0.104c-1.374,0-2.307-0.675-3.12-2.259     c-0.652-1.274-0.313-3.301,0.739-4.424c0.719-0.768,1.235-1.518,1.47-2.128c-0.035-0.14-0.081-0.284-0.127-0.428     c-0.174-0.555-0.354-1.128-0.131-1.645c0.213-0.489,0.768-0.658,1.409-0.853c0.089-0.027,0.18-0.055,0.272-0.084l-0.299-0.641     c-0.089-0.187-0.052-0.41,0.092-0.559l3.527-3.675c0.076-0.08,0.175-0.13,0.28-0.147l-0.078-0.266l-0.471,0.353     c-0.18,0.137-0.427,0.133-0.606-0.004c-0.046-0.036-0.091-0.064-0.132-0.09c-0.141-0.089-0.333-0.211-0.403-0.458     c-0.328-1.139-0.091-2.076,0.747-2.947c0.592-0.615,1.103-1.426,1.438-2.283c0.578-1.475,1.959-2.466,3.437-2.466     c0.585,0,1.145,0.148,1.665,0.441c0.098,0.055,0.234,0.096,0.38,0.139c0.252,0.075,0.538,0.161,0.779,0.364     c0.353,0.299,0.64,0.65,0.918,0.989c0.109,0.134,0.219,0.268,0.333,0.398c0.066,0.076,0.107,0.17,0.119,0.268     c1.14-0.825,2.317-1.287,3.878-1.548v-0.708c0-0.184,0.101-0.352,0.262-0.439c0.16-0.088,0.357-0.08,0.512,0.021l1.087,0.708     l0.356-2.656c0.021-0.167,0.126-0.311,0.277-0.383l0.383-0.188c0.228-0.113,0.506-0.032,0.643,0.185     c0.201,0.324,0.492,0.709,0.733,0.709c0.244,0,0.642-0.311,1.062-0.64c0.422-0.329,0.764-0.684,1.126-1.06     c0.895-0.928,1.906-1.979,3.545-2.051c0.028-0.018,0.064-0.041,0.066-0.042c0.868-0.546,2.485-0.71,3.439-0.339     c0.774,0.301,1.197,0.696,1.294,1.207c0.098,0.513-0.154,1.04-0.77,1.609c-0.047,0.043-0.094,0.085-0.142,0.126     c0.729,0.174,1.413,0.337,2.095,0.504c0.057,0.013,0.109,0.033,0.158,0.054c0.479-0.346,0.875-0.511,1.229-0.511     c0.906,0,1.113,0.934,1.266,1.615c0.018,0.078,0.034,0.156,0.053,0.233c0.233-0.018,0.498,0,0.757,0.023     c0.548,0.048,1.065,0.262,1.391-0.792c0.044-0.144,0.151-0.26,0.291-0.316c0.139-0.056,0.296-0.047,0.429,0.026l0.751,0.422     c0.576,0.326,1.116,0.632,1.674,0.905c0.086,0.042,0.228,0.059,0.378,0.077c0.188,0.022,0.4,0.047,0.612,0.131     s0.412,0.203,0.611,0.324c0.201,0.122,0.392,0.238,0.567,0.283c0.179,0.046,0.363,0.101,0.551,0.157     c0.592,0.176,1.237,0.346,1.591,0.224c0.394-0.138,0.758-0.205,1.115-0.205c0.941,0,1.633,0.473,2.186,0.936     c0.134,0.111,0.264,0.234,0.394,0.356c0.257,0.243,0.5,0.472,0.754,0.583c0.431,0.188,1.012,0.505,1.091,1.094     c0.08,0.593-0.405,1.068-0.838,1.416c-0.173,0.141-0.42,0.147-0.601,0.02l-0.754-0.528c-0.057,0.041-0.128,0.092-0.174,0.131     c-0.124,1.743-1.391,2.165-2.412,2.504c-0.242,0.081-0.485,0.161-0.717,0.26c-0.417,0.179-0.845,0.551-1.063,0.925     c-0.39,0.67-0.712,1.395-1.085,2.233c-0.164,0.368-0.337,0.756-0.529,1.172c-0.086,0.182-0.29,0.305-0.473,0.289     c-0.201-0.007-0.379-0.135-0.449-0.324c-0.88-2.342,0.19-3.667,1.179-4.71c-0.063-0.017-0.115-0.026-0.154-0.026     c-0.09,0-0.262,0.172-0.583,0.502c-0.409,0.422-1.002,0.487-1.176,0.499c-0.28,0.017-0.561,0.001-0.842-0.015     c-0.259-0.015-0.518-0.033-0.776-0.011c-0.552,0.048-0.972,0.28-1.149,0.636c-0.173,0.346-0.116,0.781,0.161,1.226     c0.344,0.552,0.263,1.312,0.135,1.853c-0.237,0.999-0.911,2.272-1.88,2.862l-0.267,0.159c-0.915,0.54-1.138,0.713-0.714,1.493     c0.196,0.365-0.066,0.667-0.298,0.934c-0.063,0.073-0.131,0.149-0.186,0.223c-0.093,0.126-0.24,0.201-0.397,0.202     c-0.001,0-0.003,0-0.004,0c-0.155,0-0.303-0.072-0.397-0.196c-0.222-0.29-0.344-0.653-0.452-0.973     c-0.189-0.559-0.275-0.704-0.419-0.704c-0.044,0-0.122,0.009-0.244,0.051c0.03,0.121,0.061,0.243,0.092,0.365     c0.327,1.285,0.698,2.741-0.472,3.977c-0.55,0.579-1.288,0.926-2.003,1.261c-0.285,0.134-0.57,0.267-0.84,0.415     c0.356,0.46,0.687,0.954,0.604,1.514c-0.051,0.348-0.256,0.649-0.607,0.896c-0.346,0.243-0.864,0.063-1.388-0.184     c-0.105-0.05-0.211-0.1-0.311-0.142c0.029,0.201,0.062,0.378,0.123,0.526c0.354,0.865,0.773,1.754,1.245,2.642     c0.02,0.017,0.163,0.097,0.339,0.132c1.204,0.238,2.416,0.461,3.544,0.668l1.128,0.208c0.191,0.035,0.345,0.178,0.394,0.366     c0.049,0.188-0.017,0.387-0.166,0.511c-0.512,0.422-1.229,0.646-2.075,0.646c-2.745,0-6.609-2.318-7.29-5.197     c-0.05-0.21,0.041-0.428,0.225-0.541c0.182-0.112,0.418-0.096,0.584,0.043l0.71,0.599c-0.154-1.271-0.849-2.247-1.89-3.277     c-1.677,0.613-2.155,1.485-1.82,3.224c0.033,0.173-0.026,0.35-0.157,0.467c-0.13,0.118-0.314,0.16-0.48,0.105     c-1.696-0.521-2.196-1.876-2.442-2.998c-0.221-1.002-0.917-1.545-2.32-1.802c0.027,0.103,0.021,0.213-0.019,0.312     c-0.459,1.163-1.275,1.837-2.282,2.372l0.051,0.005c0.185,0.017,0.345,0.133,0.416,0.303c0.072,0.171,0.045,0.366-0.071,0.51     c-0.28,0.346-0.531,0.682-0.771,1.001c-0.521,0.696-1.015,1.354-1.63,1.879c-0.758,0.646-0.937,1.23-0.638,2.084     c0.39,1.112,0.003,1.812-0.697,2.521c-0.392,0.396-0.63,0.999-0.882,1.638c-0.112,0.284-0.225,0.568-0.352,0.838     C55.468,66.914,54.224,67.708,52.501,67.708z M51.011,62.517l1.535,4.191c1.312-0.013,2.186-0.58,2.748-1.782     c0.118-0.251,0.223-0.516,0.327-0.78c0.277-0.704,0.565-1.432,1.101-1.974c0.571-0.578,0.671-0.897,0.465-1.487     c-0.438-1.25-0.142-2.259,0.933-3.175c0.53-0.452,0.97-1.039,1.479-1.718c0.073-0.099,0.147-0.198,0.224-0.299l-1.029-0.092     c-0.229-0.021-0.415-0.194-0.45-0.421c-0.035-0.228,0.089-0.449,0.301-0.538c1.461-0.614,2.624-1.103,3.253-2.144     c-2.579-0.929-2.796-1.071-2.716-2.122c0.013-0.156,0.096-0.296,0.227-0.381s0.294-0.103,0.44-0.051     c0.35,0.125,0.697,0.266,1.046,0.408c0.767,0.312,1.49,0.606,2.24,0.732c1.188,0.201,2.817,0.688,3.237,2.592     c0.201,0.916,0.511,1.512,1.011,1.888c-0.058-1.758,0.861-2.86,2.887-3.52c0.176-0.058,0.367-0.014,0.5,0.114     c0.711,0.68,1.441,1.449,1.918,2.428c0.087-0.023,0.18-0.025,0.269,0l0.309,0.083c0.171,0.047,0.263,0.072,0.353,0.104     c0.164,0.056,0.354,0.144,0.544,0.232c0.138,0.065,0.352,0.165,0.475,0.202c0.054-0.047,0.099-0.103,0.107-0.156     c0.029-0.199-0.296-0.614-0.435-0.791c-0.21-0.268-0.26-0.589-0.304-0.872c-0.015-0.094-0.028-0.187-0.05-0.274     c-0.051-0.2,0.027-0.411,0.195-0.53c0.17-0.12,0.393-0.124,0.565-0.008l0.164,0.108c0.217-0.111,0.439-0.216,0.663-0.32     c0.659-0.31,1.283-0.602,1.702-1.043c0.791-0.836,0.53-1.858,0.229-3.042c-0.067-0.266-0.136-0.532-0.19-0.795     c-0.046-0.217,0.057-0.438,0.252-0.542c1.037-0.562,1.715-0.281,2.055,0.226c0.177-0.69,0.854-1.089,1.364-1.39l0.254-0.151     c0.616-0.375,1.203-1.296,1.428-2.239c0.136-0.574,0.083-0.94-0.012-1.093c-0.46-0.74-0.535-1.542-0.206-2.202     c0.337-0.674,1.051-1.106,1.958-1.185c0.305-0.027,0.612-0.011,0.922,0.008c0.241,0.014,0.479,0.031,0.72,0.015     c0.217-0.014,0.417-0.089,0.477-0.152c0.875-0.897,1.138-1.06,2.57-0.501c0.154,0.06,0.269,0.193,0.306,0.354     c0.015,0.063,0.017,0.127,0.007,0.189c0.203-0.15,0.422-0.277,0.644-0.373c0.257-0.11,0.526-0.2,0.795-0.29     c1.107-0.369,1.688-0.612,1.734-1.706c0.017-0.387,0.341-0.619,0.602-0.806c0.076-0.054,0.154-0.108,0.217-0.165     c0.172-0.157,0.43-0.174,0.623-0.04l0.73,0.513c0.168-0.17,0.192-0.251,0.196-0.267c-0.002,0.005-0.031-0.097-0.5-0.301     c-0.413-0.181-0.731-0.481-1.04-0.772c-0.115-0.108-0.229-0.217-0.349-0.316c-0.886-0.742-1.456-0.858-2.329-0.555     c-0.622,0.219-1.46,0.013-2.207-0.209c-0.175-0.052-0.347-0.104-0.513-0.146c-0.319-0.082-0.595-0.249-0.838-0.396     c-0.15-0.091-0.301-0.186-0.462-0.249c-0.09-0.036-0.222-0.051-0.36-0.068c-0.217-0.025-0.463-0.055-0.701-0.172     c-0.573-0.281-1.131-0.596-1.727-0.933l-0.253-0.142c-0.35,0.651-0.888,0.958-1.658,0.958c-0.179,0-0.362-0.016-0.545-0.031     c-0.32-0.03-0.649-0.045-0.835,0.03c-0.125,0.051-0.266,0.047-0.389-0.007c-0.123-0.055-0.219-0.157-0.266-0.284     c-0.087-0.234-0.148-0.505-0.209-0.774c-0.059-0.266-0.169-0.762-0.281-0.833c-0.065,0.001-0.295,0.034-0.834,0.461     c-0.213,0.167-0.549,0.089-0.727,0.002c-0.775-0.206-1.481-0.375-2.238-0.556l-0.955-0.229c-0.188-0.045-0.333-0.194-0.373-0.383     s0.033-0.384,0.187-0.501l0.246-0.179c0.203-0.146,0.448-0.319,0.667-0.521c0.375-0.348,0.486-0.588,0.467-0.689     c-0.019-0.099-0.206-0.28-0.674-0.462c-0.657-0.255-1.939-0.129-2.545,0.254c-0.127,0.083-0.286,0.188-0.498,0.192     c-1.272,0.032-2.075,0.865-2.926,1.748c-0.37,0.384-0.753,0.782-1.182,1.116c-0.633,0.495-1.139,0.89-1.727,0.89     c-0.467,0-0.839-0.254-1.129-0.568l-0.378,2.819c-0.022,0.17-0.131,0.316-0.287,0.388c-0.156,0.071-0.337,0.058-0.481-0.036     l-0.978-0.637v0.214c0,0.25-0.184,0.461-0.431,0.495c-2.147,0.299-3.445,0.917-4.96,2.36c-0.248,0.235-0.753,0.448-1.061,0.448     c-0.142,0-0.345-0.079-0.439-0.184c-0.259-0.286-0.4-0.636-0.485-0.844l-0.039-0.094c-0.119-0.248-0.017-0.544,0.229-0.666     l1.021-0.503c-0.238-0.291-0.468-0.564-0.729-0.785c-0.081-0.068-0.253-0.12-0.42-0.169c-0.183-0.055-0.389-0.116-0.584-0.226     c-1.328-0.75-3.086,0.001-3.68,1.517c-0.382,0.977-0.968,1.905-1.648,2.612c-0.527,0.548-0.7,1.064-0.566,1.735l0.686-0.515     c0.131-0.099,0.302-0.128,0.457-0.075c0.156,0.051,0.276,0.175,0.323,0.332l0.379,1.285c0.089-0.058,0.161-0.13,0.218-0.219     c0.188-0.295,0.188-0.749,0.104-1.068c-0.333-1.261,0.305-1.976,0.771-2.498c0.245-0.274,0.457-0.511,0.541-0.79     c0.039-0.131,0.131-0.24,0.253-0.302c0.122-0.062,0.266-0.069,0.393-0.025l0.341,0.12c0.255,0.088,0.394,0.363,0.313,0.621     l-0.709,2.276l1.126-0.094c0.198-0.025,0.394,0.089,0.485,0.269c0.093,0.18,0.068,0.398-0.062,0.552l-2.229,2.632     c-0.073,0.087-0.174,0.146-0.286,0.168c-0.53,0.104-0.852,0.167-1.104,0.167c-0.621,0-0.811-0.395-0.896-0.79l-0.072-0.018     l-3.092,3.221l0.388,0.829c0.058,0.124,0.062,0.266,0.013,0.394s-0.15,0.229-0.276,0.281c-0.287,0.117-0.582,0.208-0.856,0.291     c-0.283,0.086-0.712,0.217-0.793,0.313c-0.065,0.156,0.069,0.584,0.178,0.928c0.07,0.223,0.14,0.445,0.183,0.656     c0.019,0.086,0.013,0.175-0.015,0.258c-0.324,0.983-1.122,1.97-1.734,2.625c-0.766,0.816-1.042,2.382-0.579,3.284     c0.733,1.428,1.396,1.715,2.229,1.715c0.251,0,0.529-0.028,0.852-0.088l0.32-0.065c0.413-0.087,0.853-0.171,1.292-0.134     c1.213,0.115,1.67,0.808,1.982,1.812l0.146,0.459C51.009,59.497,51.465,60.925,51.011,62.517z M72.713,57.75     c0.256,0.282,0.544,0.55,0.855,0.797c-0.167-0.332-0.327-0.664-0.479-0.995c-0.053,0.07-0.124,0.126-0.209,0.161     C72.827,57.735,72.77,57.747,72.713,57.75z M88.327,39.868c-0.437,0.509-0.771,1.039-0.832,1.724     C87.773,40.97,88.031,40.407,88.327,39.868z M52.521,39.485c0.001,0.353-0.068,0.779-0.317,1.168     c-0.102,0.159-0.226,0.298-0.371,0.414c0.064-0.012,0.133-0.025,0.205-0.039l1.336-1.577l-0.662,0.055     C52.645,39.51,52.581,39.504,52.521,39.485z M55.363,49.974c-1.413,0-2.671-0.091-3.848-0.279     c-0.525-0.084-0.954-0.443-1.333-0.759c-0.147-0.123-0.294-0.246-0.444-0.349c-0.1-0.068-0.169-0.168-0.199-0.278l-2.237,0.327     c-0.165,0.023-0.32-0.032-0.432-0.146c-0.111-0.116-0.161-0.277-0.133-0.436c0.301-1.692,1.195-2.538,2.734-2.586     c0.146-0.021,0.267,0.046,0.363,0.141c0.061,0.058,0.104,0.129,0.129,0.207c0.05-0.005,0.111,0,0.17,0.017     c0.001,0,0.003,0,0.005,0.001c-0.042-0.077-0.062-0.165-0.06-0.253c0.005-0.138,0.067-0.269,0.172-0.359l0.48-0.42     c0.103-0.09,0.23-0.134,0.376-0.121c0.136,0.013,0.262,0.082,0.346,0.189l1.524,1.946l0.89-0.405     c0.006-0.006,0.013-0.013,0.02-0.019l1.027-1.809c0.075-0.133,0.207-0.224,0.357-0.247c0.149-0.024,0.305,0.024,0.416,0.126     l0.273,0.253l0.329-0.399c0.104-0.126,0.264-0.193,0.427-0.18c0.163,0.014,0.309,0.106,0.392,0.247l1.122,1.934     c0.087,0.15,0.09,0.335,0.007,0.489c-0.083,0.153-0.239,0.251-0.412,0.261l-3.117,0.168c0.018,0.104,0.047,0.183,0.09,0.231     c0.119,0.135,0.483,0.156,0.835,0.175c0.411,0.023,0.878,0.049,1.312,0.246c0.136,0.062,0.236,0.181,0.275,0.324     s0.012,0.297-0.074,0.419c-0.085,0.121-0.166,0.27-0.247,0.415c-0.251,0.45-0.51,0.916-0.984,0.924L55.363,49.974z      M51.492,48.648c0.062,0.029,0.123,0.05,0.182,0.059c1.123,0.179,2.33,0.267,3.689,0.267l0.413-0.003     c0.054-0.071,0.125-0.193,0.188-0.304c-0.127-0.013-0.258-0.021-0.387-0.027c-0.53-0.03-1.133-0.063-1.528-0.512     c-0.138-0.155-0.235-0.344-0.293-0.569l-0.723,0.329c-0.209,0.095-0.458,0.035-0.601-0.147l-0.146-0.187l-0.672,0.971     C51.58,48.574,51.539,48.615,51.492,48.648z M50.617,47.998c0.037,0.03,0.073,0.06,0.109,0.09     c0.002-0.004,0.003-0.009,0.005-0.013c0.127-0.363,0.148-0.63,0.062-0.794c-0.073-0.14-0.253-0.248-0.463-0.334L50.25,47.21     c0.128,0.015,0.247,0.08,0.33,0.182c0.111,0.137,0.142,0.323,0.08,0.488L50.617,47.998z M48.987,46.532     c-0.522,0.128-0.866,0.446-1.081,1.004L49,47.376c-0.009-0.036-0.013-0.073-0.013-0.111V46.532z M55.472,45.624l-0.332,0.585     l1.815-0.098l-0.351-0.605l-0.209,0.253c-0.088,0.106-0.215,0.171-0.353,0.181c-0.137,0.009-0.272-0.039-0.373-0.133     L55.472,45.624z M59.699,44.323c-0.276,0-0.5-0.224-0.5-0.5c0-0.276,0.224-0.5,0.5-0.5c0.275,0,0.5,0.224,0.5,0.5     C60.199,44.1,59.975,44.323,59.699,44.323z"/></g><g><path fill="#000000" d="M31.021,74.854c-0.023,0-0.047-0.002-0.07-0.005c-1.649-0.233-2.729-1.757-2.566-3.621     c0.122-1.391,0.293-2.796,0.458-4.155c0.077-0.633,0.154-1.267,0.227-1.9l0.031-0.263c0.151-1.27,0.261-2.187-0.908-3.14     c-1.923-1.567-1.874-2.959-0.874-4.965c-0.893-0.186-1.744-0.611-2.354-1.74c-0.122-0.225-0.874-0.387-1.371-0.493     c-0.268-0.058-0.53-0.115-0.765-0.183l-0.288-0.082c-1.051-0.295-2.242-0.63-2.644-2.278c-0.006-0.026-0.014-0.052-0.023-0.077     c-0.043,0.073-0.104,0.135-0.18,0.179l-0.434,0.255c-0.118,0.07-0.263,0.088-0.394,0.049c-0.133-0.039-0.243-0.131-0.306-0.254     l-0.484-0.956c-0.344-0.678-0.688-1.356-1.028-2.035c-0.126-0.254-0.24-0.513-0.335-0.778c-0.076-0.211-0.157-0.422-0.239-0.633     c-0.223-0.579-0.452-1.177-0.588-1.806c-0.075-0.347-0.044-0.724-0.016-1.057c0.019-0.221,0.052-0.631-0.012-0.72     c-0.465-0.542-0.84-1.161-1.203-1.761c-0.826-1.364-1.606-2.653-3.359-2.947c-0.154-0.026-0.3-0.04-0.436-0.04     c-0.778,0-0.921,0.431-0.959,0.807c-0.018,0.18-0.132,0.336-0.298,0.409l-3.229,1.405c-0.222,0.096-0.483,0.019-0.617-0.185     L5.609,41.66c-0.147-0.216-0.104-0.509,0.101-0.673l1.323-1.058c-0.065-0.074-0.131-0.146-0.194-0.217     c-0.477-0.531-0.927-1.033-1.262-1.611c-0.242-0.41,0.076-0.756,0.581-1.261l-0.972-0.503c-0.163-0.084-0.267-0.25-0.271-0.433     s0.093-0.354,0.251-0.444l0.796-0.455l-0.548-0.27c-0.133-0.065-0.23-0.188-0.265-0.332s-0.003-0.297,0.086-0.416     c0.907-1.21,1.8-2.016,3.208-2.016c0.613,0,1.313,0.148,2.268,0.48c0.261,0.091,0.518,0.192,0.774,0.293     c0.42,0.166,0.817,0.322,1.225,0.431c0.513,0.136,0.891,0.109,0.891,0.108c1.004-0.799,2.24-0.863,3.359-0.481l-0.303-0.474     l-0.297,0.176c-0.156,0.094-0.354,0.093-0.513-0.001c-0.157-0.095-0.25-0.269-0.241-0.453l0.159-3.327     c0.008-0.173,0.105-0.33,0.257-0.414s0.336-0.083,0.487,0.001l3.492,1.959l0.295-0.405c0.104-0.143,0.275-0.221,0.45-0.206     c0.176,0.016,0.33,0.123,0.406,0.283l1.818,3.807c0.073,0.152,0.062,0.329-0.021,0.471c0.137,0.021,0.282,0.044,0.437,0.069     c0.048-0.186,0.087-0.36,0.075-0.5c-0.038-0.457-0.103-0.911-0.166-1.366c-0.086-0.611-0.175-1.243-0.202-1.88     c-0.021-0.555,0.099-0.973,0.358-1.243c0.402-0.419,1.046-0.42,1.843,0.059c0.136,0.082,0.225,0.222,0.24,0.379     c0.015,0.157-0.045,0.312-0.161,0.419c-1.177,1.069-0.721,1.719-0.03,2.701c0.181,0.258,0.365,0.52,0.516,0.796l0.735-0.75     c0.175-0.18,0.459-0.199,0.659-0.047l0.314,0.238c0.123,0.095,0.195,0.241,0.195,0.396v1.174c0,0.128-0.049,0.251-0.138,0.344     l-0.563,0.584c-0.332,0.341-0.602,0.618-0.849,0.913c-0.451,0.538-0.976,1.178-1.448,1.855c-0.407,0.585-0.578,0.97-0.522,1.176     c0.082,0.301,0.815,0.64,1.057,0.751c0.153,0.07,0.315,0.133,0.479,0.196c0.669,0.259,1.537,0.596,1.85,1.524     c0.312-1.171,0.439-2.387-0.05-3.579c-0.052-0.126-0.05-0.268,0.006-0.393c0.056-0.125,0.16-0.221,0.289-0.267     c0.443-0.159,0.848-0.239,1.202-0.239c0.611,0,1.654,0.25,1.871,1.897l0.421-0.366c0.11-0.095,0.257-0.14,0.399-0.117     c0.145,0.021,0.272,0.103,0.351,0.226l2.326,3.646c0.083,0.131,0.102,0.293,0.048,0.439c-0.053,0.146-0.171,0.259-0.318,0.306     l-2.271,0.722l0.209,0.24c0.093,0.105,0.137,0.246,0.121,0.385c-0.016,0.14-0.09,0.266-0.203,0.349     c-0.076,0.055-0.151,0.126-0.228,0.196c-0.237,0.217-0.533,0.488-0.922,0.5c-0.603,0.017-1.036,0.162-1.29,0.431     c-0.231,0.246-0.341,0.631-0.324,1.146l0.008,0.108c0.021,0.24,0.052,0.604-0.245,0.817c-0.887,0.631-1.013,1.372-0.468,2.734     l0.021,0.051c0.066,0.085,0.105,0.192,0.105,0.309c0,0.276-0.224,0.5-0.5,0.5c-0.007,0.001-0.013,0-0.02,0     c-0.194,0-0.38-0.114-0.46-0.305l-0.071-0.172c-0.406-0.929-0.881-1.054-1.292-1.054c-0.345,0-0.725,0.097-1.126,0.2     c-0.372,0.095-0.758,0.194-1.137,0.215c-0.422,0.023-0.646,0.433-0.705,0.558c-0.161,0.342-0.161,0.733,0,0.952     c0.117,0.158,0.291,0.349,0.441,0.349c0.104,0,0.254-0.078,0.422-0.222c0.154-0.131,0.321-0.246,0.566-0.413l0.446-0.309     c0.162-0.115,0.377-0.121,0.548-0.018c0.17,0.104,0.263,0.298,0.235,0.495l-0.123,0.896c0.071,0.042,0.131,0.101,0.167,0.175     c0.073,0.147,0.154,0.292,0.235,0.438c0.196,0.354,0.399,0.72,0.518,1.133c0.085,0.298,0.249,0.449,0.486,0.449     c0.138,0,0.253-0.053,0.291-0.091c0.622-0.616,1.287-0.915,2.033-0.915c0.718,0,1.377,0.276,2.015,0.544     c0.265,0.111,0.527,0.222,0.792,0.31c0.671,0.22,1.428,0.515,1.951,1.03c0.357,0.352,0.499,0.843,0.624,1.277     c0.019,0.062,0.036,0.125,0.055,0.187l0.586,0.109c0.686,0.127,1.414,0.262,2.136,0.426c0.46,0.104,1.097,0.311,1.311,0.884     c0.221,0.589-0.151,1.201-0.45,1.611c-0.289,0.394-0.463,0.769-0.49,1.057c-0.113,1.191-0.436,2.335-2.017,2.625     c-0.065,0.02-0.233,0.176-0.301,0.321c-0.849,1.852-2.253,3.201-3.515,4.277c-0.35,0.3-0.553,0.864-0.769,1.461     c-0.099,0.272-0.197,0.544-0.311,0.796c0.001,0.014,0.005,0.058,0.004,0.101c-0.001,0.178-0.003,0.446-0.203,0.658     c-0.306,0.324-0.452,0.621-0.434,0.883c0.021,0.302,0.259,0.635,0.705,0.99c0.177,0.14,0.237,0.381,0.147,0.589     C31.401,74.737,31.219,74.854,31.021,74.854z M28.364,55.994c0.07,0.046,0.129,0.109,0.169,0.187     c0.078,0.148,0.076,0.327-0.005,0.475c-1.256,2.271-1.198,3.122,0.296,4.34c1.596,1.301,1.43,2.69,1.27,4.034l-0.03,0.257     c-0.073,0.637-0.15,1.272-0.228,1.908c-0.165,1.351-0.335,2.747-0.455,4.121c-0.049,0.557,0.045,1.062,0.251,1.476     c0.036-0.441,0.248-0.881,0.633-1.312c0.001-0.018,0-0.036,0-0.055c0.001-0.136,0.003-0.322,0.085-0.503     c0.102-0.229,0.191-0.477,0.281-0.726c0.25-0.692,0.509-1.409,1.06-1.881c1.238-1.057,2.489-2.265,3.256-3.936     c0.175-0.38,0.584-0.806,1.028-0.888c0.809-0.148,1.09-0.554,1.201-1.734c0.046-0.48,0.274-1.003,0.679-1.554     c0.368-0.504,0.322-0.668,0.321-0.67c0-0.001-0.065-0.139-0.596-0.26c-0.707-0.16-1.423-0.292-2.096-0.417l-0.88-0.164     c-0.168-0.033-0.309-0.15-0.37-0.311c-0.063-0.163-0.117-0.345-0.17-0.528c-0.095-0.331-0.193-0.673-0.364-0.841     c-0.377-0.371-1.001-0.609-1.562-0.794c-0.29-0.095-0.578-0.216-0.866-0.337C30.195,55.432,29.246,55.155,28.364,55.994z      M24.301,53.705c0.188,0.046,0.371,0.096,0.544,0.156c-0.011-0.055-0.013-0.111-0.005-0.168l0.049-0.354l0,0     C24.689,53.508,24.495,53.63,24.301,53.705z M18.54,49.702c0.088,0,0.176,0.023,0.255,0.07c0.824,0.489,1.849,1.097,2.074,2.021     c0.263,1.08,0.968,1.278,1.942,1.552l0.026,0.008c-0.091-0.09-0.179-0.192-0.265-0.308c-0.383-0.518-0.422-1.292-0.101-1.974     c0.315-0.671,0.896-1.093,1.554-1.129c0.281-0.016,0.604-0.099,0.944-0.186c0.753-0.194,1.615-0.342,2.273-0.054     c0.034-0.667,0.304-1.345,1.037-1.929c-0.002-0.014-0.003-0.028-0.004-0.042l-0.012-0.161c-0.024-0.791,0.176-1.418,0.597-1.864     c0.441-0.469,1.11-0.72,1.988-0.746c0.024-0.012,0.104-0.081,0.18-0.15l-0.381-0.438c-0.11-0.127-0.15-0.301-0.104-0.463     s0.17-0.291,0.33-0.341l2.376-0.755l-1.664-2.609l-0.463,0.402c-0.114,0.099-0.267,0.141-0.416,0.114     c-0.149-0.027-0.277-0.12-0.351-0.253c-0.029-0.054-0.065-0.106-0.101-0.16c-0.116-0.173-0.261-0.388-0.291-0.662     c-0.118-1.109-0.64-1.109-0.89-1.109c-0.117,0-0.247,0.015-0.388,0.043c0.476,1.615,0.104,3.181-0.382,4.644     c-0.045,0.135-0.145,0.244-0.275,0.301c-0.13,0.056-0.277,0.055-0.407-0.003c-0.048-0.022-0.112-0.044-0.179-0.067     c-0.31-0.109-0.695-0.245-0.699-0.661c-0.002-0.816-0.481-1.041-1.328-1.369c-0.183-0.071-0.364-0.142-0.535-0.221     c-0.84-0.388-1.435-0.773-1.604-1.397c-0.181-0.665,0.214-1.359,0.667-2.009c0.495-0.71,1.037-1.373,1.502-1.926     c0.261-0.312,0.546-0.606,0.898-0.968l0.418-0.433v-0.304l-0.734,0.75c-0.131,0.133-0.325,0.182-0.505,0.128     c-0.179-0.055-0.312-0.206-0.345-0.39c-0.068-0.382-0.354-0.788-0.654-1.216c-0.036-0.051-0.072-0.103-0.109-0.156     c0.016,0.143,0.03,0.285,0.042,0.428c0.028,0.334-0.055,0.649-0.127,0.927c-0.028,0.106-0.057,0.212-0.076,0.316     c-0.05,0.267-0.307,0.444-0.57,0.401c-1.419-0.228-2.201-0.354-2.598-0.354c-0.135,0-0.177,0.016-0.179,0.017     c-0.003,0.001-0.021,0.086-0.054,0.164c-0.095,0.227-0.34,0.349-0.578,0.293l-1.787-0.43c-0.191-0.046-0.338-0.201-0.374-0.395     s0.045-0.391,0.207-0.503c1.027-0.711,2.148-1.014,3.307-0.884l-1.016-2.127l-0.063,0.087c-0.149,0.205-0.427,0.266-0.648,0.142     l-3.176-1.781l-0.076,1.591l0.521-0.31c0.213-0.126,0.486-0.079,0.643,0.113c0.157,0.191,0.15,0.469-0.016,0.652l-0.235,0.261     l0.452,0.707l0.338-0.354c0.186-0.19,0.485-0.206,0.686-0.034c0.202,0.172,0.234,0.472,0.074,0.683l-0.859,1.134     c-0.143,0.189-0.4,0.251-0.612,0.15c-0.663-0.313-1.367-0.62-2.033-0.62c-0.497,0-0.955,0.172-1.402,0.527     c-0.351,0.276-0.857,0.3-1.752,0.062c-0.464-0.124-0.906-0.299-1.334-0.467c-0.244-0.097-0.488-0.193-0.736-0.279     c-0.832-0.29-1.448-0.425-1.938-0.425c-0.744,0-1.327,0.318-2.03,1.141l0.835,0.411c0.166,0.082,0.273,0.249,0.279,0.434     c0.006,0.185-0.092,0.357-0.252,0.449l-0.814,0.465l0.754,0.389c0.137,0.071,0.233,0.2,0.262,0.352s-0.014,0.307-0.115,0.423     c-0.115,0.131-0.27,0.286-0.424,0.439c-0.102,0.101-0.246,0.246-0.351,0.359c0.269,0.401,0.61,0.781,0.995,1.211     c0.178,0.197,0.361,0.403,0.551,0.623c0.088,0.103,0.131,0.237,0.118,0.373c-0.005,0.047-0.016,0.094-0.033,0.138l0.738-0.321     c0.24-1.052,1.149-1.581,2.506-1.354c2.205,0.371,3.185,1.988,4.049,3.416c0.358,0.59,0.696,1.148,1.107,1.628     c0.336,0.393,0.292,0.931,0.248,1.452c-0.022,0.277-0.047,0.563-0.003,0.764c0.119,0.553,0.325,1.089,0.544,1.657     c0.084,0.218,0.168,0.436,0.247,0.655c0.081,0.229,0.18,0.451,0.288,0.668c0.162,0.323,0.326,0.647,0.489,0.971     C18.468,49.706,18.504,49.702,18.54,49.702z"/></g><g><path fill="#000000" d="M83.719,68.817c-0.111,0-0.223-0.011-0.332-0.032c-0.962-0.188-1.757-1.033-2.053-1.387     c-0.368-0.439-0.689-0.498-0.955-0.498c-0.297,0-0.636,0.093-0.959,0.193c-0.533,0.165-1.07,0.314-1.613,0.465l-0.741,0.208     c-0.231,0.063-0.466-0.038-0.576-0.244c-0.055-0.101-0.099-0.173-0.132-0.229c-0.073-0.121-0.143-0.236-0.158-0.398     c-0.027-0.31-0.088-0.632-0.147-0.955c-0.159-0.857-0.323-1.744,0.041-2.466c0.425-0.845,1.42-1.358,2.299-1.811     c0.187-0.096,0.369-0.19,0.543-0.286c0.603-0.331,1.238-0.552,1.798-0.747c0.212-0.074,0.41-0.143,0.587-0.212     c0.197-0.08,0.426-0.021,0.563,0.144l0.78,0.922l0.085-0.47c0.035-0.188,0.174-0.341,0.358-0.392     c0.184-0.054,0.383,0.008,0.509,0.151c0.95,1.078,1.907,2.166,2.861,3.257c0.052,0.059,0.121,0.206,0.141,0.282     c0.408,0.915,0.003,2.104-0.516,2.902C85.45,68.219,84.56,68.817,83.719,68.817z M80.379,65.9c0.676,0,1.239,0.279,1.722,0.855     c0.468,0.56,1.035,0.961,1.479,1.049c0.514,0.101,1.193-0.381,1.684-1.134c0.465-0.715,0.637-1.512,0.428-1.981     c-0.006-0.013-0.015-0.038-0.023-0.064c-0.711-0.812-1.418-1.615-2.12-2.414l-0.089,0.494c-0.034,0.19-0.176,0.344-0.363,0.395     c-0.182,0.048-0.386-0.013-0.511-0.16l-1.239-1.464c-0.092,0.032-0.187,0.065-0.284,0.1c-0.522,0.182-1.116,0.389-1.646,0.68     c-0.181,0.1-0.372,0.198-0.566,0.298c-0.779,0.401-1.585,0.816-1.864,1.371c-0.212,0.422-0.079,1.14,0.05,1.834     c0.059,0.317,0.116,0.634,0.149,0.937l0.354-0.099c0.533-0.148,1.062-0.295,1.585-0.457C79.521,66.015,79.949,65.9,80.379,65.9z"/></g><g><path fill="#000000" d="M31.838,36.723c-0.109,0-0.219-0.036-0.31-0.107l0.31-0.393L31.47,36.57     c-0.009-0.007-0.092-0.075-0.101-0.083l-0.912-0.856c-0.852-0.801-1.73-1.629-2.632-2.392c-0.088,0.008-0.212,0.037-0.324,0.063     c-0.192,0.045-0.39,0.087-0.562,0.096l-0.148,0.003c-0.677,0-1.268-0.237-1.662-0.667c-0.393-0.428-0.577-1.032-0.519-1.701     c0.068-0.801,0.406-0.998,0.968-1.067c0.124-0.015,0.278-0.033,0.471-0.093c1.558-0.49,1.87,0.236,2.041,0.827     c0.215,0.148,0.435,0.292,0.654,0.435c0.636,0.416,1.293,0.845,1.849,1.396c0.574,0.571,1.034,1.233,1.52,1.934     c0.217,0.312,0.439,0.633,0.683,0.96c0.154,0.208,0.125,0.499-0.068,0.671l-0.555,0.497     C32.077,36.68,31.958,36.723,31.838,36.723z M27.861,32.237c0.217,0,0.398,0.061,0.54,0.18c0.946,0.796,1.858,1.655,2.741,2.487     l0.162,0.152c-0.004-0.006-0.009-0.013-0.014-0.02c-0.459-0.663-0.894-1.288-1.403-1.795c-0.483-0.479-1.069-0.863-1.69-1.269     c-0.281-0.183-0.562-0.367-0.832-0.559c-0.096-0.068-0.165-0.167-0.194-0.281c-0.027-0.103-0.099-0.374-0.15-0.424     c-0.214-0.009-0.41,0.037-0.673,0.119c-0.266,0.083-0.478,0.11-0.647,0.131c-0.027,0.003-0.052,0.005-0.075,0.008     c-0.006,0.035-0.013,0.083-0.019,0.152c-0.034,0.392,0.056,0.717,0.26,0.939c0.206,0.225,0.525,0.343,0.925,0.343l0.101-0.002     c0.118-0.005,0.251-0.04,0.383-0.07C27.469,32.284,27.669,32.237,27.861,32.237z"/></g><g><path fill="#000000" d="M61.349,32.573c-0.441,0-0.782-0.135-1.014-0.401c-0.348-0.401-0.323-0.958-0.254-1.451     c0.367-2.582,1.745-3.914,4.608-4.454c0.228-0.042,0.446,0.071,0.543,0.274c0.099,0.204,0.048,0.448-0.124,0.596l-0.401,0.342     c-1.532,1.298-2.855,2.418-2.568,4.504c0.019,0.131-0.017,0.265-0.097,0.37c-0.08,0.106-0.199,0.175-0.33,0.193     C61.579,32.565,61.458,32.573,61.349,32.573z M62.506,28.15c-0.819,0.595-1.257,1.461-1.435,2.711     c-0.067,0.473-0.017,0.613,0.019,0.655c0.003,0.003,0.007,0.006,0.011,0.009C61.072,30.102,61.69,29.04,62.506,28.15z"/></g><g><path fill="#000000" d="M19.507,29.477c-0.72,0-1.205-0.571-1.863-1.442c-0.059-0.042-0.363-0.093-0.564-0.126     c-0.225-0.038-0.47-0.08-0.718-0.147c-0.181-0.049-0.318-0.194-0.357-0.376c-0.04-0.182,0.025-0.372,0.169-0.491l1.905-1.581     c0.155-0.128,0.372-0.152,0.551-0.058c0.179,0.093,0.284,0.285,0.267,0.485l-0.086,0.994l0.677,0.41v-0.649     c0-0.219,0.143-0.412,0.351-0.477c0.211-0.066,0.437,0.013,0.561,0.192l1.104,1.595c0.149,0.216,0.106,0.511-0.1,0.675     C20.574,29.141,20.055,29.477,19.507,29.477z M18.811,27.904c0.396,0.481,0.585,0.645,0.877,0.532L18.811,27.904z"/></g><g><path fill="#000000" d="M46.724,43.637c-0.181,0-0.381-0.105-0.47-0.262c-0.099-0.168-0.18-0.344-0.253-0.525     c-0.101,0.075-0.204,0.134-0.3,0.189c-0.054,0.031-0.107,0.062-0.158,0.095c-0.12,0.078-0.267,0.101-0.405,0.064     c-0.138-0.038-0.253-0.132-0.316-0.26c-0.026-0.054-0.065-0.112-0.104-0.171c-0.151-0.234-0.359-0.554-0.206-0.899     c0.304-0.682,0.645-1.343,1.006-2.043l0.376-0.731c0.088-0.174,0.263-0.282,0.466-0.273c0.195,0.008,0.368,0.129,0.442,0.31     l0.329,0.788c0.224,0.53,0.411,0.976,0.566,1.432c0.184,0.536,0.278,1.045,0.282,1.514c0.001,0.133-0.063,0.285-0.157,0.379     C47.602,43.466,46.929,43.637,46.724,43.637z M46.142,41.277c0.011,0,0.021,0,0.032,0.001c0.197,0.013,0.368,0.14,0.437,0.325     l0.132,0.368c0.074,0.208,0.142,0.4,0.216,0.575c-0.032-0.273-0.102-0.565-0.207-0.874c-0.129-0.377-0.281-0.747-0.459-1.169     c-0.151,0.293-0.298,0.58-0.439,0.865C45.937,41.31,46.036,41.277,46.142,41.277z"/></g><g><path fill="#000000" d="M80.2,50.387c-0.124,0-0.247-0.046-0.343-0.136c-0.161-0.152-0.203-0.392-0.104-0.589     c0.085-0.168,0.151-0.343,0.213-0.502c0.163-0.425,0.318-0.826,0.723-0.943c1.747-0.512,1.954-1.807,2.193-3.307     c0.042-0.263,0.083-0.524,0.134-0.776c0.037-0.189,0.18-0.339,0.366-0.387c0.188-0.047,0.384,0.016,0.508,0.164l0.902,1.077     c0.121,0.145,0.151,0.345,0.077,0.519c-0.077,0.178-0.151,0.365-0.228,0.556c-0.195,0.489-0.396,0.994-0.672,1.482     c-0.311,0.546-0.737,1.041-1.202,1.392c-0.428,0.325-0.882,0.577-1.458,0.896c-0.259,0.144-0.543,0.302-0.858,0.485     C80.373,50.364,80.286,50.387,80.2,50.387z"/></g><g><path fill="#000000" d="M85.821,61.149c-0.028,0-0.058-0.003-0.087-0.008c-0.264-0.046-0.522-0.077-0.773-0.107     c-0.606-0.072-1.179-0.142-1.71-0.392c-0.734-0.346-1.392-0.948-2.129-1.954c-0.123-0.169-0.129-0.396-0.015-0.57     c0.114-0.174,0.32-0.262,0.528-0.213c0.238,0.054,0.476,0.112,0.714,0.172c0.543,0.136,1.056,0.265,1.576,0.327     c0.46,0.053,0.936,0.042,1.522,0.028c0.311-0.006,0.651-0.014,1.037-0.014c0.224,0,0.42,0.148,0.481,0.363     c0.061,0.216-0.028,0.445-0.219,0.562l-0.929,0.572l0.366,0.39c0.147,0.157,0.178,0.391,0.075,0.58     C86.173,61.051,86.003,61.149,85.821,61.149z M82.943,59.247c0.244,0.214,0.486,0.374,0.734,0.491     c0.257,0.121,0.554,0.187,0.886,0.236c-0.025-0.072-0.033-0.15-0.023-0.228c0.016-0.118,0.072-0.225,0.158-0.304     c-0.313-0.001-0.604-0.013-0.891-0.046C83.516,59.362,83.227,59.309,82.943,59.247z"/></g><g><path fill="#000000" d="M26.086,29.665c-1.172,0-1.677-0.728-2.262-1.755c-0.051-0.089-0.292-0.208-0.468-0.296     c-0.144-0.071-0.287-0.143-0.414-0.223c-0.118-0.075-0.199-0.196-0.225-0.334c-0.024-0.138,0.01-0.28,0.095-0.391l0.331-0.436     c0.126-0.166,0.359-0.259,0.557-0.198c0.069,0.021,0.142,0.036,0.214,0.052c0.206,0.045,0.44,0.097,0.659,0.234     c0.237,0.148,0.456,0.335,0.674,0.523c0.522,0.451,0.937,0.777,1.584,0.502c0.062-0.026,0.136-0.041,0.203-0.041     c0.335,0,0.491,0.238,0.87,0.812c0.101,0.152,0.206,0.312,0.303,0.446c0.097,0.133,0.121,0.305,0.065,0.46     c-0.055,0.155-0.183,0.273-0.342,0.315C27.057,29.57,26.522,29.665,26.086,29.665z M25.015,27.946     c0.403,0.612,0.646,0.719,1.071,0.719c0.225,0,0.51-0.039,0.901-0.125c-0.036-0.057-0.071-0.11-0.104-0.158     C26.132,28.583,25.497,28.311,25.015,27.946z"/></g><g><path fill="#000000" d="M30.784,38.499c-0.1,0-0.199-0.03-0.286-0.09l-2.237-1.559c-0.134-0.094-0.215-0.248-0.214-0.412     s0.081-0.318,0.217-0.411c0.813-0.559,1.389-0.925,1.943-0.925c0.882,0,1.336,0.902,1.86,1.947     c0.104,0.205,0.054,0.453-0.119,0.603l-0.836,0.725C31.019,38.457,30.901,38.499,30.784,38.499z M29.436,36.449l1.315,0.917     l0.247-0.214c-0.297-0.569-0.587-1.05-0.791-1.05C30.042,36.102,29.76,36.248,29.436,36.449z"/></g><g><path fill="#000000" d="M75.506,59.243c-0.131,0-0.257-0.051-0.351-0.144c-0.105-0.104-0.159-0.248-0.147-0.396     c0.008-0.106,0.003-0.223-0.001-0.34c-0.013-0.379-0.026-0.808,0.255-1.12c0.351-0.392,0.781-0.679,1.199-0.956     c0.156-0.105,0.313-0.21,0.465-0.319c0.155-0.114,0.362-0.127,0.533-0.034l0.29,0.156c0.212,0.113,0.312,0.362,0.239,0.592     c-0.062,0.192-0.115,0.39-0.168,0.588c-0.145,0.532-0.294,1.084-0.595,1.576c-0.236,0.39-0.753,0.39-1.062,0.39l-0.376-0.004     c-0.083,0-0.163,0.002-0.235,0.009C75.537,59.242,75.521,59.243,75.506,59.243z M76.003,58.234l0.161,0.002     c0.135,0,0.217-0.006,0.266-0.011c0.152-0.281,0.256-0.605,0.352-0.949c-0.294,0.2-0.564,0.4-0.776,0.637     C75.996,57.946,75.999,58.102,76.003,58.234z"/></g><g><path fill="#000000" d="M58.954,64.968c-0.04,0-0.08-0.005-0.119-0.015c-0.132-0.032-0.244-0.116-0.312-0.233     c-0.036-0.062-0.086-0.126-0.136-0.191c-0.188-0.252-0.424-0.565-0.3-0.935c0.228-0.672,0.509-1.326,0.78-1.959l0.286-0.67     c0.104-0.248,0.382-0.374,0.637-0.274l0.666,0.25c0.24,0.091,0.372,0.348,0.307,0.596l-0.182,0.705     c-0.17,0.665-0.34,1.33-0.55,1.98c-0.105,0.329-0.416,0.477-0.643,0.584c-0.06,0.027-0.119,0.055-0.169,0.086     C59.14,64.941,59.047,64.968,58.954,64.968z M59.08,63.78c0.009,0.014,0.019,0.028,0.029,0.042     c0.062-0.197,0.121-0.396,0.177-0.596C59.214,63.411,59.145,63.596,59.08,63.78z"/></g><g><path fill="#000000" d="M89.75,71.635c-0.096,0-0.192-0.027-0.275-0.083c-0.164-0.108-0.25-0.303-0.218-0.497     c0.117-0.721,0.548-1.219,0.928-1.659c0.562-0.65,0.816-0.996,0.457-1.735c-0.091-0.186-0.058-0.408,0.084-0.56     c0.141-0.152,0.361-0.2,0.553-0.123c0.745,0.301,1.268,0.611,1.391,1.147c0.123,0.533-0.237,1.023-0.607,1.434     c-0.151,0.168-0.278,0.358-0.405,0.547c-0.165,0.244-0.335,0.496-0.555,0.725c-0.238,0.245-0.531,0.41-0.79,0.556     c-0.099,0.056-0.199,0.111-0.294,0.171C89.936,71.609,89.843,71.635,89.75,71.635z"/></g><g><path fill="#000000" d="M28.111,27.568c-0.004,0-0.012,0.001-0.02,0h-2.835c-0.162,0-0.315-0.079-0.408-0.212     c-0.094-0.133-0.117-0.303-0.062-0.456l0.507-1.423c0.051-0.143,0.163-0.255,0.307-0.305c0.14-0.049,0.301-0.032,0.43,0.048     c0.152,0.096,0.411,0.126,0.685,0.16c0.616,0.074,1.633,0.196,1.854,1.48c0.028,0.063,0.044,0.133,0.044,0.207     C28.611,27.345,28.388,27.568,28.111,27.568z M25.966,26.568h1.385c-0.155-0.114-0.394-0.151-0.756-0.195     c-0.17-0.021-0.351-0.042-0.53-0.083L25.966,26.568z"/></g><g><path fill="#000000" d="M42.475,37.489c-0.251,0-0.472-0.047-0.655-0.14c-0.375-0.189-0.553-0.583-0.726-0.964     c-0.064-0.143-0.133-0.295-0.217-0.442c-0.085-0.151-0.086-0.335-0.003-0.487c0.084-0.152,0.24-0.25,0.413-0.259     c0.201-0.01,0.38-0.025,0.544-0.039c0.381-0.031,0.688-0.053,0.987-0.016c0.311,0.037,0.596,0.152,0.847,0.254     c0.098,0.04,0.194,0.079,0.293,0.113c0.138,0.047,0.247,0.153,0.301,0.288s0.046,0.287-0.021,0.416     c-0.039,0.073-0.071,0.159-0.104,0.244c-0.113,0.292-0.256,0.657-0.608,0.806C43.184,37.407,42.801,37.489,42.475,37.489z      M42.082,36.141c0.067,0.143,0.143,0.285,0.192,0.317c0.032,0.016,0.503,0.035,0.861-0.116l0,0c-0.015,0-0.009-0.034,0.005-0.079     c-0.157-0.062-0.306-0.112-0.442-0.128C42.504,36.11,42.31,36.123,42.082,36.141z"/></g><g><path fill="#000000" d="M78.968,56.848c-0.154,0-0.304-0.072-0.398-0.194l-0.121-0.139c-0.219-0.249-0.466-0.531-0.598-0.888     c-0.171-0.455-0.287-0.927-0.4-1.382c-0.046-0.184-0.091-0.367-0.14-0.55c-0.039-0.143-0.013-0.294,0.072-0.415     c0.084-0.121,0.217-0.199,0.363-0.213l0.235-0.024c0.166-0.026,0.333,0.046,0.441,0.175c0.104,0.122,0.213,0.242,0.322,0.361     c0.282,0.309,0.573,0.628,0.788,1.016c0.222,0.4,0.26,0.865,0.292,1.275l0.016,0.18c0.013,0.141-0.058,0.324-0.152,0.428     C79.588,56.588,79.22,56.848,78.968,56.848z"/></g><g><path fill="#000000" d="M22.916,28.919c-0.074,0-0.149-0.017-0.218-0.05l-1.486-0.72c-0.218-0.106-0.328-0.353-0.262-0.586     l0.118-0.417c0.043-0.158,0.159-0.284,0.313-0.34l1.542-0.554c0.163-0.059,0.343-0.029,0.478,0.077     c0.135,0.106,0.206,0.274,0.188,0.445l-0.177,1.696c-0.017,0.162-0.111,0.306-0.254,0.385C23.084,28.898,23,28.919,22.916,28.919     z"/></g></g></g><text x="0" y="115" fill="#000000" font-size="5px" font-weight="bold" font-family="'Helvetica Neue', Helvetica, Arial-Unicode, Arial, Sans-serif">Created by Dima Lagunov</text><text x="0" y="120" fill="#000000" font-size="5px" font-weight="bold" font-family="'Helvetica Neue', Helvetica, Arial-Unicode, Arial, Sans-serif">from the Noun Project</text></svg>