<svg xmlns="http://www.w3.org/2000/svg" xmlns:xlink="http://www.w3.org/1999/xlink" version="1.1" x="0px" y="0px" viewBox="0 0 100 125" enable-background="new 0 0 100 100" xml:space="preserve"><g><path fill="#000000" d="M71.668,26.668H28.334C15.449,26.668,5,37.113,5,50s10.449,23.332,23.334,23.332h43.334   C84.552,73.332,95,62.887,95,50S84.552,26.668,71.668,26.668z M71.668,71.111H28.334C16.674,71.111,7.223,61.66,7.223,50   c0-11.659,9.451-21.111,21.111-21.111h43.334c11.657,0,21.109,9.452,21.109,21.111C92.777,61.66,83.325,71.111,71.668,71.111z"/><path fill="#000000" d="M40.944,52.334c-2.601-1.557-6.671-0.791-7.74-0.552c-0.035,0.003-0.068,0.008-0.105,0.016   c-0.312-0.153-0.934-0.597-1.406-0.933c-0.448-0.319-0.928-0.659-1.424-0.979c-0.012-0.613,0.076-1.289,0.33-1.556   c0.04-0.044,0.137-0.149,0.481-0.109c0.152,0.033,0.557,0.281,0.8,0.43c0.699,0.428,1.49,0.911,2.284,0.5   c0.258-0.137,0.703-0.483,0.75-1.259c0.079-1.321,1.211-2.51,2.209-3.556c0.89-0.934,1.658-1.74,1.714-2.711   c0.109-1.901-2.636-3.524-3.821-4.133l-0.483-0.246l-0.489,0.225c-0.51,0.233-1.095,0.436-1.54,0.543   c0.168-0.331,0.396-0.702,0.524-0.91c0.474-0.771,0.847-1.381,0.466-2.057l-0.392-0.601H17.06l-0.334,0.442   c-0.753,1.003-2.459,3.516-2.053,5.172c0.14,0.565,0.501,1.014,1.019,1.262l0.377,0.181l0.399-0.112   c1.5-0.415,3.331-0.838,4.096-0.925c0.396,0.582,1.145,1.954,1.623,2.827c0.627,1.149,1.025,1.872,1.289,2.238   c0.105,0.145,0.296,0.527,0.483,0.897c0.754,1.495,1.89,3.754,3.805,4.601c0.858,0.378,1.807,1.053,2.642,1.648   c0.58,0.411,1.078,0.767,1.529,1.014c-0.328,0.943-0.648,2.288-0.058,3.561c0.413,0.884,0.937,1.47,1.36,1.942   c0.553,0.613,0.724,0.833,0.683,1.322c-0.022,0.271-0.076,0.657-0.14,1.118c-0.504,3.651-0.827,7.332,1.174,8.711   c0.166,0.115,0.495,0.291,0.937,0.291c0.327,0,0.715-0.096,1.143-0.392c2.611-1.798,6.623-12.58,6.026-15.036   C42.756,53.958,42.043,52.991,40.944,52.334z M28.13,48.663c-0.939-0.761-1.702-2.271-2.186-3.235   c-0.257-0.509-0.458-0.91-0.665-1.195c-0.197-0.272-0.7-1.193-1.143-2.006c-1.616-2.956-2.021-3.566-2.543-3.835   c-0.133-0.071-0.3-0.158-0.75-0.158c-0.601,0-1.705,0.158-3.9,0.727c0.211-0.594,0.686-1.48,1.243-2.294h12.518   c-0.465,0.829-0.838,1.746-0.53,2.57c0.157,0.419,0.479,0.747,0.907,0.923c0.953,0.394,2.437-0.068,3.37-0.446   c1.09,0.633,2.086,1.447,2.173,1.746c-0.07,0.25-0.695,0.908-1.11,1.344c-0.932,0.978-2.148,2.251-2.622,3.859   c-0.5-0.301-1.013-0.591-1.559-0.65c-1.203-0.127-1.945,0.361-2.352,0.792C28.49,47.325,28.244,48.005,28.13,48.663z M35.98,68.249   c-0.703-1.191-0.183-4.989,0.001-6.312c0.07-0.507,0.126-0.934,0.152-1.234c0.125-1.472-0.635-2.315-1.244-2.994   c-0.374-0.416-0.726-0.81-0.998-1.394c-0.33-0.706,0.085-1.768,0.333-2.402c0.009-0.023,0.018-0.051,0.029-0.077   c1.486-0.268,4.067-0.485,5.552,0.407c0.574,0.346,0.934,0.833,1.093,1.49C41.37,57.771,37.498,66.732,35.98,68.249z"/><path fill="#000000" d="M46.167,37.434l2.496-4.039l-5.8-3.616l-7.864,4.33l5.821,5.906L46.167,37.434z M42.793,32.352l2.816,1.757   l-0.993,1.603l-3.33,1.609l-2.645-2.681L42.793,32.352z"/><path fill="#000000" d="M83.78,35.634l-0.304-0.102c-0.528-0.176-5.207-1.709-7.317-1.709c-0.249,0-0.462,0.02-0.656,0.059   c-0.54,0.111-2.007,0.116-3.425,0.119c-2.362,0.006-5.038,0.014-6.878,0.404c-1.06,0.225-2.22,0.674-3.346,1.108   c-1.5,0.58-3.052,1.178-4.182,1.178c-0.376,0-0.671-0.065-0.898-0.199c-0.957-0.566-1.795-0.831-2.642-0.831   c-0.766,0-1.406,0.219-2.028,0.43c-0.311,0.105-0.636,0.217-1.008,0.305c-2.521,0.609-2.669,3.695-2.718,4.711l-0.007,0.121   c-0.067,1.297,1.262,2.61,1.67,2.982l0.407,0.374l0.545-0.103c0.026-0.005,2.689-0.5,4.308-0.5c0.066,0,0.127,0.003,0.182,0.004   c-0.097,0.176-0.222,0.378-0.324,0.549c-0.24,0.389-0.532,0.864-0.814,1.432c-0.039,0.004-0.094,0.007-0.164,0.007   c-0.625,0-1.624-0.249-2.59-0.486c-1.118-0.279-2.278-0.565-3.208-0.565c-1.904,0-2.282,1.207-2.355,1.783   c-0.528,1.748-1.899,6.987,0.119,8.729l0.281,0.244l0.372,0.022c1.195,0.079,2.837,0.142,3.887,0.175   c0.495,8.513,0.844,9.132,0.979,9.372c0.346,0.616,1.099,0.958,2.116,0.958c1.385,0,2.967-0.643,3.37-2.078   c0.095-0.327,0.35-1.105,0.675-2.107c3.173-9.76,2.976-9.879,2.031-10.45c-0.304-0.182-0.662-0.26-1.114-0.356   c-0.18-0.037-0.474-0.101-0.717-0.174c0.598-0.347,1.87-0.76,3.076-0.974l0.288-0.05c0.793,2.358,1.33,3.131,2.162,3.282   l0.233,0.023c0.756,0,1.324-0.59,2.266-1.564c0.343-0.356,0.914-0.947,1.306-1.252c0.146,0.278,0.307,0.676,0.422,0.948   c0.489,1.193,1.045,2.544,2.341,2.544l0.149-0.006c0.556-0.052,1.849-0.173,4.214-7.299l0.146-0.435l-0.528-1.058l5.028-3.419   l-0.644-0.921c-0.076-0.108-0.149-0.22-0.222-0.334c5.24-0.053,5.803-0.625,6.146-0.973c1.044-1.057,0.422-2.637-0.425-3.671   L83.78,35.634z M77.465,38.307l-0.756-0.003c-0.471,0-0.896,0.253-1.108,0.66c-0.207,0.395-0.325,0.9,0.452,2.223l-4.81,3.268   l0.983,1.971c-0.646,1.884-1.497,3.937-2.08,4.924c-0.112-0.249-0.228-0.53-0.315-0.741c-0.477-1.16-1.021-2.478-2.296-2.493   c-1.057,0-2.04,1.019-3.085,2.1c-0.13,0.137-0.288,0.301-0.443,0.456c-0.191-0.442-0.464-1.17-0.838-2.377l-0.063-0.202   c-0.188-0.592-0.692-0.975-1.281-0.975c-0.501,0-1.009,0.281-1.513,0.84c-1.758,0.348-4.333,1.125-4.728,2.717   c-0.128,0.516-0.055,1.014,0.213,1.441c0.504,0.807,1.523,1.069,2.325,1.242c-0.382,1.738-1.767,5.998-2.41,7.977   c-0.341,1.043-0.602,1.853-0.699,2.19c-0.051,0.185-0.57,0.462-1.232,0.462c-0.073,0-0.137-0.005-0.191-0.011   c-0.216-1.26-0.531-5.47-0.744-9.236l-0.055-1.02l-1.02-0.03c-0.03,0-2.514-0.069-4.325-0.171   c-0.358-0.911-0.047-3.715,0.739-6.265l0.031-0.099c0.041-0.004,0.099-0.008,0.167-0.008c0.66,0,1.684,0.254,2.675,0.5   c1.146,0.284,2.228,0.553,3.123,0.553c1.294,0,1.847-0.597,2.087-1.096c0.255-0.543,0.537-1,0.783-1.406   c0.586-0.954,1.19-1.937,0.586-3.041c-0.429-0.788-1.421-0.894-2.335-0.894c-1.339,0-3.194,0.278-4.131,0.434   c-0.305-0.345-0.554-0.706-0.58-0.849l0.009-0.132c0.031-0.668,0.114-2.438,1.018-2.655c0.44-0.108,0.832-0.238,1.199-0.363   c0.514-0.175,0.917-0.312,1.315-0.312c0.27,0,0.723,0.055,1.512,0.52c0.571,0.34,1.254,0.51,2.028,0.51   c1.546,0,3.295-0.676,4.983-1.329c1.09-0.422,2.119-0.82,3.009-1.008c1.609-0.341,4.275-0.348,6.419-0.354   c1.734-0.003,3.106-0.008,3.868-0.166c0.01-0.001,0.07-0.012,0.207-0.012c1.372,0,4.728,0.987,6.279,1.485   c0.101,0.155,0.186,0.322,0.24,0.454C82.064,38.13,80.517,38.307,77.465,38.307z"/><path fill="#000000" d="M79.116,56.271l-0.307,0.041c-0.546,0.144-0.838,0.573-1.12,0.986c-0.121,0.177-0.374,0.544-0.413,0.596   c-0.003,0-0.23-0.06-0.689-0.615l-0.583-0.71l-5.742,3.136l1.291,5.17l0.986-0.134c0.016-0.001,1.482-0.2,2.673-0.2   c0.686,0,0.932,0.066,0.95,0.066c0.112,0.075,0.4,0.38,0.589,0.582c0.662,0.703,1.412,1.5,2.351,1.5   c0.501,0,1.396-0.222,1.767-1.716c0.55-2.201,0.106-7.101-0.747-8.189C79.775,56.337,79.344,56.271,79.116,56.271z M78.785,64.096   c-0.151-0.15-0.304-0.313-0.416-0.43c-0.395-0.42-0.734-0.784-1.12-0.998c-0.435-0.241-1.062-0.349-2.037-0.349   c-0.675,0-1.409,0.055-1.98,0.107l-0.397-1.596l2.682-1.465c1.145,1.005,2.432,0.821,3.16,0.195   C78.877,60.907,79.001,62.831,78.785,64.096z"/></g><text x="0" y="115" fill="#000000" font-size="5px" font-weight="bold" font-family="'Helvetica Neue', Helvetica, Arial-Unicode, Arial, Sans-serif">Created by Greg Beck</text><text x="0" y="120" fill="#000000" font-size="5px" font-weight="bold" font-family="'Helvetica Neue', Helvetica, Arial-Unicode, Arial, Sans-serif">from the Noun Project</text></svg>